<svg xmlns="http://www.w3.org/2000/svg" width="41" height="50" viewBox="0 0 41 50" fill="none" name="RBC" alt="RBC" class="hm-customer-logos__image"><path fill-rule="evenodd" clip-rule="evenodd" d="M37.505 43.865c0 1.656-.666 2.616-1.971 3.127C30.465 48.976 24.462 50 18.752 50c-5.709 0-11.712-1.024-16.78-3.008C.667 46.48 0 45.52 0 43.866V0h37.505v43.865Z" fill="#fff"/><path fill-rule="evenodd" clip-rule="evenodd" d="m21.402 8.743-.002.004c.002-.001.002-.002.002-.004Zm.003-.006a.015.015 0 0 0-.003.005v.001l.003-.006ZM10.058 26.699c-5.192-3.295-6.907-4.752-7.053-6.913-.026-.438.073-1.177.253-1.706l-.488-.33a4.435 4.435 0 0 0-.641 2.233c0 1.248.393 2.193.876 2.947.729 1.141 1.497 1.859 3.387 3.299 2.037 1.553 3.427 3.366 4.228 5.262h.29v-2.15c2.754 1.584 5.18 3.078 6.373 5.747h.29c-.468-2.765-2.007-4.897-7.515-8.39Zm10.933 13.484c.946-.156 1.85-.904 1.85-2.033 0-1.02-.427-2.138-3.379-2.138H14.48v.08c.15.048.389.172.545.328.338.336.45.837.466 1.504V45.5h4.128c2.272 0 3.915-.878 3.915-2.895 0-1.641-1.255-2.337-2.543-2.423Zm-2.125-3.269c1.057 0 1.773.233 1.773 1.38 0 1.22-.96 1.556-2.055 1.556h-.943v-2.936h1.226Zm.106 7.69h-1.33V40.73h1.27c1.746 0 2.417.528 2.417 1.859 0 1.438-.875 2.017-2.357 2.017Zm-8.168.896h2.69l-3.438-4.463c1.378-.373 2.41-1.14 2.41-2.53 0-1.633-.962-2.496-3.477-2.496H3.79v.081c.192.07.406.195.546.337.365.364.473.918.473 1.671v7.4h2.158v-4.206h.788l3.049 4.206Zm-3.837-8.586H8.42c1.21 0 1.843.36 1.843 1.666 0 1.165-.827 1.857-2.15 1.857H6.966v-3.523Zm25.293.397c.579.332.754.766.757.771.027.032.089.024.089.024l.47-1.625s-.843-.615-2.85-.615c-3.037 0-5.31 1.553-5.31 4.954 0 3.832 2.707 4.827 5.095 4.827 2.222 0 3.095-.718 3.095-.718v-1.113s-.785.745-2.468.745c-1.39 0-3.43-.644-3.473-3.795-.041-2.91 1.208-3.858 2.88-3.858.932 0 1.399.222 1.715.403Z" fill="#000921"/><path fill-rule="evenodd" clip-rule="evenodd" d="m34.687 32.77-.684 2.323h-.351c0-1.97-1.779-2.505-3.64-2.505h-5.84c.188.97.274 2.108.13 3.18h-.29c-.539-4.424-2.999-6.616-6.44-8.961v2.012h-.289c-.914-2.077-2.923-4.028-4.826-5.41l-1.548-1.123v2.172h-.289c-.807-2.153-2.271-3.76-4.359-5.673-2.255-2.064-3.165-3.298-3.693-4.717-.319-.86-.41-1.554-.421-2.498-.021-1.688.818-3.213 1.866-3.782v.817c-.52.698-.79 1.581-.79 2.48-.002.829.192 1.75.599 2.537 1.27 2.455 5.547 5.469 8.263 7.32 8.447 5.755 10.132 6.76 11.536 9.813.156.34.312.799.441 1.328 1.22-.19 5.647-.875 6.464-1.006.156-.025.482-.067.651-.078.762-.489 1.358-1.113 1.88-1.892l-3.236-.254c-.143.323-.303.64-.478.947h-.264c.086-.327.163-.655.231-.986l-.828-.064v-.178l.897-.113c.16-.87.25-1.75.27-2.633l-4.078-.236c-.022.399-.026.798-.012 1.198h-.262a16.86 16.86 0 0 1-.207-1.226l-.893-.051v-.278l.849-.045a18.93 18.93 0 0 1-.082-3l-2.386-.11c.113.212.229.428.312.664.514 1.46.392 3.174.222 3.962h-.289c-.043-.912-.344-2.029-.63-2.712-.66-1.578-2.14-2.975-4.62-4.593v2.018h-.29c-.824-2.651-2.878-4.126-5.931-5.718-2.52-1.315-3.303-2.897-3.16-5.347l.852.511c.217 2.293 1.95 3.615 3.763 3.6 1.068-.007 2.068-.15 3.036-.348 1.396-.287 2.688-.531 3.765-.143V12.62h-.846c-.304.267-.918.574-1.822.59-.994.017-2.874-.564-2.874-2.699 0-1.854 1.544-2.15 2.801-2.15.674 0 1.793-.023 2.172-.046.281-.018.492-.062.628-.198.143-.143.187-.29.22-.48.039-.228.039-.463.039-.862V5.421h-5.828v2.344l-2.205-.851v-.562h1.055v-.931H9.016V3.474h-1.34c-.717 0-1.542.509-1.6 1.497-.056.948.364 1.747 1.324 1.747h.173v1.135H7.4c-1.683 0-2.95-1.284-2.95-2.99 0-1.775 1.488-3.126 3.288-3.126h2.843v1.947h11.054V6.56c0 .484-.025 1.136-.072 1.548-.034.3-.138.838-.696 1.272-.337.26-.844.366-1.67.369a33.873 33.873 0 0 1-1.992-.071c-1.26-.08-1.617.413-1.667.87-.01.095-.01.189 0 .283.59-.465 1.424-.791 2.372-.489 1.668.532 2.144.581 3.013-.113l.087.199c-.136.21-.307.394-.505.546h.807v4.433l2.508-1.527h7.04l3.465 1.841c.433.23.602.509.669.918.056.343-.03.776-.196 1.054-.104.174-.911 1.52-1.34 2.24a7.759 7.759 0 0 1 2.006 5.204c0 1.858-.678 4.255-2.875 6.036.984.325 1.607.875 2.098 1.597ZM18.28 11.214c-.99-.22-1.54-.096-2.109.453.278.136.626.21 1.011.181.555-.04.9-.378 1.098-.634Zm-.572 6.388 2.787-1.697a4.208 4.208 0 0 0-1.871-.46c-.96-.015-2.58.433-3.364.555.35.243 1.595 1.05 2.448 1.602Zm12.44.18.385-.551-.598-.81.1-.179 1.682.92-.366 1.13c.27.133.52.3.852.524l1.086-1.814-2.812-1.494H24.26l-5.046 3.084c.948.668 1.82 1.39 2.44 2.12 1.352-2 3.727-3.274 6.08-3.274.77 0 1.665.083 2.415.344Zm-.507 7.16c-.029-.858-.13-1.71-.304-2.55l-3.294-.153a21.21 21.21 0 0 0-.445 2.92l4.043-.218Zm1.11-2.484c.106.864.116 1.673.061 2.42l3.265-.174a6.555 6.555 0 0 0-.61-2.12l-2.717-.126Zm-1.664-1.086c-.34-1.196-.748-2.028-.962-2.42a6.483 6.483 0 0 0-.413-.012c-.228 0-.46.03-.683.053-.325.83-.598 1.678-.818 2.542l2.876-.163Zm.905-2.008c.232.628.42 1.272.561 1.927l1.995-.113a6.424 6.424 0 0 0-2.556-1.814Zm3.671 8.55c.233-.576.384-1.13.425-1.831l-3.392-.196a11.958 11.958 0 0 1-.676 2.491l3.643-.463Zm-8.366-8.417c-1.136.518-1.92 1.22-2.617 2.228l2.32-.123c.084-1.048.22-1.744.297-2.105Z" fill="#000921"/><path fill-rule="evenodd" clip-rule="evenodd" d="M37.871 45.617h.99v.148h-.413v1.09h-.165v-1.09h-.412v-.148Zm2.146 1.237v-.73c0-.037.004-.194.004-.31h-.004l-.343 1.04h-.163l-.343-1.037h-.003c0 .113.003.27.003.306v.731h-.16v-1.238h.237l.348 1.047h.003l.347-1.047h.235v1.238h-.16Z" fill="#fff"/></svg>