<svg width="55" height="36" viewBox="0 0 55 36" fill="none" xmlns="http://www.w3.org/2000/svg" name="Adidas" alt="Adidas" class="hm-customer-logos__image"><path id="adidas_svg__Vector" fill-rule="evenodd" clip-rule="evenodd" d="M51.907 23.926h.147c.09 0 .154.017.195.057.017.008.025.017.033.025.065.057.138.17.228.326l.138.244h.294l-.18-.301a2.023 2.023 0 0 0-.227-.302.401.401 0 0 0-.131-.08.476.476 0 0 0 .318-.14.4.4 0 0 0 .122-.293.36.36 0 0 0-.073-.22.351.351 0 0 0-.196-.146.867.867 0 0 0-.293-.04c-.024 0-.057-.009-.09-.009h-.529v1.53h.245v-.65Zm0-.667h.375c.073.008.122.016.154.024a.18.18 0 0 1 .106.081.198.198 0 0 1 .033.123.204.204 0 0 1-.074.162c-.04.041-.114.057-.22.066h-.374v-.456Zm-36.561.17h2.198l-2.198-3.663-1.857-3.085-7.888 4.738 1.205 2.01h8.54Zm20.45 0h10.738L39.85 12.294 32.458 0l-3.044 1.832-4.836 2.906 4.835 8.052 6.383 10.64Zm-3.753 3.673a4.78 4.78 0 0 0-2.605-.774h-.024a4.847 4.847 0 0 0-4.812 4.836A4.847 4.847 0 0 0 29.413 36h.025c.96 0 1.848-.285 2.605-.773v.504h2.223v-12.3h-2.223v3.67Zm0 4.567a2.67 2.67 0 0 1-2.605 2.157h-.024a2.668 2.668 0 0 1-2.638-2.662 2.656 2.656 0 0 1 2.637-2.654h.025c1.286 0 2.37.928 2.605 2.15v1.009Zm10.437-4.567a4.757 4.757 0 0 0-2.605-.774h-.025a4.847 4.847 0 0 0-4.81 4.836A4.847 4.847 0 0 0 39.85 36h.025c.96 0 1.856-.285 2.605-.773v.504h2.223v-9.159H42.48v.53Zm0 4.567a2.67 2.67 0 0 1-2.605 2.157h-.025a2.668 2.668 0 0 1-2.637-2.662 2.657 2.657 0 0 1 2.637-2.654h.025c1.286 0 2.369.928 2.605 2.15v1.009Zm10.128-1.107c-.082-.042-.196-.082-.326-.13-.497-.172-1.303-.383-2.426-.627-.985-.22-1.482-.505-1.482-.863 0-.253.09-.457.26-.603.228-.195.635-.293 1.222-.293.594 0 1.025.13 1.278.382.155.155.268.432.342.823h2.36c0-1.156-.471-1.987-1.4-2.491a.923.923 0 0 0-.154-.082c-.644-.3-1.498-.456-2.565-.456-1.294 0-2.271.342-2.922 1.034-.52.554-.773 1.23-.773 2.027 0 .994.488 1.71 1.481 2.174.375.18 1.286.432 2.736.741.969.212 1.457.513 1.457.896 0 .228-.098.423-.31.602-.268.228-.675.342-1.22.342-.725 0-1.238-.122-1.54-.358-.3-.228-.456-.561-.456-.985h-2.474c0 1.124.472 1.962 1.424 2.516.758.431 1.75.651 2.98.651.822 0 1.555-.139 2.182-.407.13-.057.245-.114.367-.18.968-.536 1.457-1.391 1.457-2.563 0-.962-.497-1.678-1.498-2.15ZM7.44 27.102a4.804 4.804 0 0 0-2.613-.774h-.025A4.845 4.845 0 0 0 0 31.164 4.845 4.845 0 0 0 4.803 36h.025c.96 0 1.856-.285 2.613-.773v.504h2.222v-9.159H7.441v.53Zm0 4.567a2.672 2.672 0 0 1-2.613 2.157h-.025a2.667 2.667 0 0 1-2.63-2.662 2.655 2.655 0 0 1 2.63-2.654h.025c1.294 0 2.377.928 2.613 2.15v1.009Zm13.872-6.065h2.418v-2.125h-2.418v2.125Zm0 10.127h2.418v-9.403h-2.418v9.403Zm-3.33-8.63a4.805 4.805 0 0 0-2.613-.773h-.024a4.847 4.847 0 0 0-4.812 4.836A4.847 4.847 0 0 0 15.346 36h.024c.928 0 1.835-.269 2.614-.773v.504h2.222v-12.3h-2.222v3.67Zm0 4.568a2.672 2.672 0 0 1-2.613 2.157h-.024a2.669 2.669 0 0 1-2.638-2.662 2.657 2.657 0 0 1 2.638-2.654h.024c1.295 0 2.377.928 2.614 2.15v1.009Zm14.052-8.24-2.621-4.379-6.44-10.714-7.628 4.592-.26.155.26.431 5.959 9.916h10.73Z" fill="#fff"/></svg>