<svg xmlns="http://www.w3.org/2000/svg" width="83" height="34" viewBox="0 0 83 34" fill="none" name="Ogilvy" alt="Ogilvy" class="hm-customer-logos__image"><path fill-rule="evenodd" clip-rule="evenodd" d="M18.71 13.296c0 5.51-2.8 9.866-7.013 9.866-4.119 0-7.074-4.171-7.074-9.93 0-5.51 2.798-9.867 7.012-9.867 4.12 0 7.075 4.172 7.075 9.93Zm4.622-.156c0-6.194-4.78-11.113-11.635-11.113C5.377 2.027 0 6.509 0 13.387 0 19.58 4.78 24.5 11.635 24.5c6.32 0 11.697-4.48 11.697-11.36Zm10.187 2.24c0 2.179-1.006 4.047-2.578 4.047-1.51 0-2.704-1.65-2.704-4.171 0-2.148 1.006-4.047 2.61-4.047 1.477 0 2.672 1.65 2.672 4.17Zm10.694-8.56c0-1.556-1.415-2.707-4.025-2.707-3.585 0-6.352 2.304-6.352 5.82 0 .28.032.499.032.717a7.636 7.636 0 0 0-2.925-.56c-2.83 0-6.226 1.712-6.226 5.417a4.858 4.858 0 0 0 2.673 4.233c-2.516.342-3.962 1.681-3.962 3.767 0 2.116 1.698 3.642 4.874 3.268l4.59-.56c2.297-.28 3.05.529 3.05 1.712 0 2.055-1.948 3.705-5.061 3.705-2.485 0-3.397-.872-3.397-2.117 0-.187.032-.436.032-.623a1.227 1.227 0 0 0-1.226-1.307 1.38 1.38 0 0 0-1.416 1.525c0 2.055 1.982 3.893 6.038 3.893 4.56 0 7.452-2.926 7.452-6.288 0-2.677-2.17-4.14-5.156-3.767l-5.252.654c-1.73.218-2.264-.343-2.264-1.214 0-1.028 1.133-1.837 5.063-1.837h.063c2.86 0 6.226-1.712 6.226-5.417a4.533 4.533 0 0 0-1.257-3.147 3.997 3.997 0 0 1-.377-1.93c0-2.74 1.886-4.295 3.835-4.295.818 0 1.067.124 1.067.684 0 .156-.031.28-.031.467a1.967 1.967 0 0 0 3.93-.093m9.748 16.342-1.54-.156a.427.427 0 0 1-.378-.466V1l-5.534 1.401v.653l1.572.499a.507.507 0 0 1 .346.53v18.365a.623.623 0 0 1-.693.59l-1.404.03-1.489-.03a.62.62 0 0 1-.693-.59v-12.42l-5.533 1.4v.654l1.572.498a.507.507 0 0 1 .346.53v9.43a.427.427 0 0 1-.377.468l-1.289.155v.997h15.093v-.998Zm28.708-11.64v-.966h-5.378v.934l1.258.249c.44.093.566.436.283 1.12l-2.892 6.91c-.126.28-.284.28-.379 0l-2.703-6.91c-.284-.716-.126-1.027.314-1.12l1.258-.25v-.933H63.235v.934l1.257.249c.44.093.598.436.314 1.12l-2.798 7.284c-.126.28-.283.28-.377 0l-2.83-7.284c-.252-.716-.126-1.027.314-1.12l1.258-.25v-.933h-7.106v.965l.693.155a1.206 1.206 0 0 1 .943.779l4.811 11.705h2.17l4.81-11.705c.252-.623.534-.872 1.038-.872h.189a.981.981 0 0 1 .974.747l5.031 12.14-1.352 3.175c-.88 2.117-1.54 2.49-2.358 2.49-.346 0-.724-.062-1.1-.062a1.468 1.468 0 0 0-1.573 1.432c0 .84.693 1.432 1.792 1.432 1.573 0 3.114-1.245 4.403-4.233l6.855-15.907a1.723 1.723 0 0 1 1.383-1.152l.69-.124Z" fill="#fff"/></svg>