<svg width="126" height="30" viewBox="0 0 126 30" fill="none" xmlns="http://www.w3.org/2000/svg" name="Walmart" alt="Walmart" class="hm-customer-logos__image"><g id="walmart_svg__Group 1000010187" fill="#fff"><path id="walmart_svg__Vector" d="M72.568 15.965c0-2.963-1.268-5.58-5.557-5.58-2.2 0-3.949.627-4.896 1.175l.694 2.377c.873-.547 2.265-.998 3.58-.998 2.17-.003 2.526 1.225 2.526 2.015v.19c-4.74-.007-7.736 1.63-7.736 4.966 0 2.038 1.521 3.948 4.18 3.948 1.623 0 2.994-.654 3.813-1.688h.08s.54 2.259 3.525 1.395c-.152-.946-.209-1.942-.209-3.154v-4.646Zm-3.536 3.128c0 .24-.02.488-.09.7-.273.913-1.215 1.677-2.387 1.677-.989 0-1.765-.56-1.765-1.733 0-1.794 1.982-2.288 4.242-2.276M0 6.353S3.096 19.02 3.588 21.072c.58 2.398 1.618 3.284 4.615 2.694l1.935-7.854c.489-1.947.822-3.342 1.138-5.325h.053c.22 2.003.535 3.379.936 5.33 0 0 .79 3.569 1.199 5.438.399 1.87 1.521 3.049 4.46 2.41l4.607-17.412h-3.718l-1.581 7.533c-.42 2.182-.8 3.9-1.095 5.9h-.054c-.267-1.978-.606-3.626-1.041-5.764l-1.638-7.669h-3.88l-1.748 7.473c-.498 2.282-.964 4.111-1.257 6.048h-.05a220.77 220.77 0 0 0-1.146-6.327s-1.039-5.35-1.405-7.194m28.977 9.612c0-2.963-1.272-5.58-5.56-5.58-2.195 0-3.947.627-4.894 1.175l.695 2.377c.869-.547 2.26-.998 3.579-.998 2.171-.003 2.527 1.225 2.527 2.015v.19c-4.74-.007-7.74 1.63-7.74 4.966 0 2.038 1.528 3.948 4.175 3.948 1.637 0 2.996-.654 3.815-1.688h.082s.543 2.259 3.526 1.395c-.153-.946-.206-1.942-.206-3.154v-4.646Zm-3.54 3.128c0 .24-.02.488-.087.7-.276.913-1.218 1.677-2.392 1.677-.983 0-1.762-.56-1.762-1.733 0-1.794 1.98-2.288 4.241-2.276m9.008 6.299V6.353h-3.539V23.76h3.54ZM83.431 6.353v12.843c0 1.773.332 3.009 1.048 3.766.63.664 1.658 1.097 2.883 1.097 1.052 0 2.081-.203 2.567-.379l-.043-2.765a5.667 5.667 0 0 1-1.35.157c-1.207 0-1.606-.766-1.606-2.357v-4.917h3.082v-3.326H86.93V6.353m-12.647 4.333v13.08h3.659v-6.699c0-.36.023-.671.08-.96.272-1.412 1.344-2.306 2.888-2.306.431 0 .724.047 1.05.098V10.47a3.88 3.88 0 0 0-.795-.075c-1.37 0-2.921.87-3.576 2.763h-.09v-2.472m-37.08 0v13.08h3.565v-7.677c0-.36.04-.729.167-1.061.29-.778 1.01-1.678 2.164-1.678 1.435 0 2.113 1.212 2.113 2.96v7.455h3.556v-7.768c0-.34.048-.755.147-1.055.285-.882 1.064-1.592 2.141-1.592 1.45 0 2.153 1.186 2.153 3.246v7.17h3.553v-7.712c0-4.052-2.061-5.659-4.401-5.659-1.029 0-1.848.253-2.584.707-.623.382-1.168.92-1.658 1.624h-.053c-.563-1.408-1.885-2.33-3.612-2.33-2.214 0-3.22 1.117-3.812 2.062h-.054v-1.772"/><path id="walmart_svg__Vector_2" d="M109.161 10.1c.699 0 1.288-.366 1.364-.835l.694-7.851c0-.778-.916-1.414-2.058-1.414-1.149 0-2.058.636-2.058 1.414l.699 7.851c.074.47.659.834 1.359.834Zm-4.253 2.456c.346-.613.326-1.294-.048-1.598l-6.471-4.525c-.673-.393-1.68.075-2.257 1.066-.575.989-.459 2.1.2 2.484l7.165 3.322c.459.171 1.058-.148 1.411-.755m8.505 0c.366.607.966.926 1.412.763l7.164-3.33c.666-.393.765-1.492.203-2.481-.575-.991-1.589-1.456-2.261-1.07l-6.472 4.52c-.359.308-.385.992-.039 1.604m-4.259 7.35c.699 0 1.288.366 1.364.835l.694 7.851c0 .778-.916 1.408-2.058 1.408-1.149 0-2.058-.63-2.058-1.408l.699-7.851c.074-.47.659-.834 1.359-.834Zm4.252-2.45c.366-.608.966-.933 1.412-.757l7.164 3.325c.666.385.765 1.493.203 2.484-.575.983-1.589 1.45-2.261 1.066l-6.472-4.527c-.359-.305-.385-.986-.039-1.59m-8.512-.007c.346.612.326 1.291-.048 1.598l-6.471 4.52c-.673.392-1.68-.078-2.257-1.06-.575-.99-.459-2.1.2-2.485l7.165-3.324c.459-.175 1.058.147 1.411.751Zm19.178 5.435h.089c.121 0 .17.038.184.135.026.107.04.18.066.21h.23c-.02-.023-.046-.081-.06-.216-.026-.117-.086-.183-.17-.206v-.021c.116-.026.184-.105.184-.201 0-.088-.04-.15-.08-.19a.625.625 0 0 0-.313-.066c-.144 0-.25.012-.334.032v.868h.204v-.345Zm.006-.396.104-.014c.123 0 .189.057.189.137 0 .089-.089.13-.203.13h-.09v-.253Zm.13-.589a.885.885 0 0 0-.901.874c0 .494.398.887.901.887a.88.88 0 1 0 0-1.76Zm0 .177c.387 0 .673.313.673.697 0 .388-.286.71-.673.704-.386 0-.679-.316-.679-.704a.68.68 0 0 1 .673-.697"/></g></svg>