<svg width="70" height="28" viewBox="0 0 70 28" fill="none" xmlns="http://www.w3.org/2000/svg" name="Ebay" alt="Ebay" class="hm-customer-logos__image"><g id="ebay_svg__Group 1000010185" fill="#fff"><path id="ebay_svg__Vector" d="M44.236 14.844c-3.168.104-5.148.672-5.148 2.773 0 1.361 1.086 2.824 3.823 2.824 3.668 0 5.63-1.997 5.63-5.286v-.362l-4.304.052Zm7.818 4.34.12 2.926H48.92a19.14 19.14 0 0 1-.12-2.204c-1.756 2.17-3.858 2.789-6.767 2.789-4.305 0-6.613-2.273-6.613-4.908 0-3.823 3.134-5.166 8.602-5.286 1.489-.033 3.159-.033 4.537-.033v-.38c0-2.548-1.637-3.59-4.476-3.59-2.101 0-3.668.878-3.823 2.376h-3.685c.396-3.753 4.34-4.701 7.8-4.701 4.175 0 7.663 1.48 7.663 5.872v7.146l.016-.008Z"/><path id="ebay_svg__Vector_2" d="M13.947 12.986C13.81 9.713 11.442 8.49 8.92 8.49c-2.72 0-4.907 1.378-5.286 4.495h10.313ZM3.565 15.31c.19 3.186 2.377 5.062 5.39 5.062 2.083 0 3.943-.835 4.562-2.703h3.616c-.705 3.754-4.701 5.027-8.128 5.027-6.25 0-9.005-3.443-9.005-8.075C0 9.507 2.858 6.15 9.075 6.15c4.942 0 8.558 2.582 8.558 8.23v.931H3.565Z"/><path id="ebay_svg__Vector_3" d="M26.605 20.303c3.254 0 5.475-2.341 5.475-5.872 0-3.53-2.22-5.872-5.475-5.872-3.238 0-5.476 2.341-5.476 5.872 0 3.53 2.238 5.872 5.476 5.872ZM17.632 0h3.495v8.8c1.722-2.05 4.08-2.635 6.405-2.635 3.908 0 8.231 2.634 8.231 8.317 0 4.76-3.444 8.231-8.3 8.231-2.55 0-4.925-.913-6.406-2.72 0 .723-.033 1.446-.12 2.135h-3.443l.12-3.616V0h.018Z"/><path id="ebay_svg__Vector_4" d="M69.877 6.734 59.045 28H55.12l3.117-5.907-8.145-15.359h4.099l5.992 12.002 5.975-12.002h3.719Z"/></g></svg>