<svg width="80" height="40" viewBox="0 0 80 40" fill="none" xmlns="http://www.w3.org/2000/svg" name="The Economist" alt="The Economist" class="hm-customer-logos__image"><g id="theEconomist_svg__Group" fill-rule="evenodd" clip-rule="evenodd"><path id="theEconomist_svg__Vector" d="M0 40h79.608V0H0v40Z" fill="#fff"/><path id="theEconomist_svg__Vector_2" d="m36.776 8.256.047 1.931-.45.024c-.035-1.182-.284-1.343-2.08-1.343h-.385v6.764c0 .934.238 1.182 1.158 1.208l.023.323c-.871-.012-1.532-.012-1.951-.012-.441 0-1.126 0-2.024.012l.023-.323c.923-.026 1.161-.274 1.161-1.208V8.867h-.45c-1.844 0-2.094.162-2.117 1.344l-.448-.024.045-1.93c1.684.01 2.944.026 3.79.026.79 0 2.023-.016 3.658-.027Zm.746 8.607c.835 0 .948-.161.96-1.331V9.889c-.012-1.172-.125-1.334-.96-1.334l-.025-.3c1.135-.06 1.395-.1 2.42-.284v3.836c.66-.71 1.197-.997 1.933-.997 1.22 0 1.894.747 1.894 2.168v2.554c.013 1.17.125 1.331.958 1.331l.022.3c-.717-.024-1.266-.05-1.628-.05-.351 0-.862.026-1.547.05l.026-.3c.66-.098.722-.22.734-1.331v-1.87c0-1.57-.272-2.091-1.095-2.091-.439 0-.911.284-1.11.721-.075.15-.125.31-.175.472-.012.065-.012.113-.012.138v2.63c0 1.11.075 1.233.733 1.331l.026.3c-.697-.024-1.21-.05-1.558-.05-.362 0-.911.026-1.621.05l.025-.3Zm9.209-3.66c1.145-.025 1.493-.053 2.63-.176-.15-1.208-.603-1.781-1.373-1.781-.748 0-1.135.596-1.258 1.957Zm3.951 2.739c-.773.96-1.532 1.36-2.508 1.36-1.73 0-2.902-1.272-2.902-3.13 0-2.003 1.209-3.363 2.953-3.363.937 0 1.611.348 2.072 1.085.311.524.397.884.409 1.782h-3.94c.052 1.869.736 2.939 1.875 2.939.67 0 1.243-.312 1.855-1.02l.186.347ZM4.752 28.678c1.012-.026 1.274-.302 1.274-1.339v-6.485c0-1.036-.262-1.311-1.274-1.34l-.04-.334 2.12.027 3.352-.043.883.016.055 2.005-.553.042c-.096-1.255-.33-1.393-2.297-1.393h-.306l-.138.012v3.733c.26 0 .471.014.596.014.212.016.424.024.636.026 1.082 0 1.331-.232 1.343-1.26h.471c-.042.823-.042 1.248-.042 1.662 0 .332 0 .8.014 1.42h-.443c-.055-.99-.277-1.185-1.315-1.197l-.748-.016-.525.028v2.89c0 1.176.068 1.23 1.23 1.23 1.539 0 1.996-.346 2.132-1.662l.554.03-.319 2.293-1.064.015-3.362-.027-2.274.012.04-.36Zm13.961-.62c-.788.815-1.414 1.133-2.325 1.133-1.823 0-2.991-1.423-2.991-3.566 0-2.238 1.233-3.639 3.225-3.639.525 0 1.056.097 1.874.319l.024 1.632-.622.042c-.231-1.219-.474-1.509-1.276-1.509-1.035 0-1.574.901-1.574 2.682 0 2.078.647 3.252 1.824 3.252.608 0 1.095-.264 1.635-.843l.206.497Zm3.169-2.353c.137 1.952.788 3.014 1.851 3.014.995 0 1.591-1.033 1.591-2.75 0-2.043-.818-3.458-1.95-3.458-1.008 0-1.521.848-1.521 2.575 0 .207 0 .413.029.62Zm-1.692.154v-.21c0-2.332 1.256-3.663 3.392-3.663 1.982 0 3.39 1.47 3.39 3.608 0 2.146-1.368 3.597-3.431 3.597-1.97 0-3.282-1.326-3.351-3.332Zm8.415 2.848c.902 0 1.039-.18 1.039-1.477v-3.183c0-1.259-.137-1.439-1.039-1.453l-.027-.317c1.205-.069 1.484-.11 2.532-.332l.07 1.223c.788-.864 1.396-1.182 2.216-1.182 1.342 0 2.1.872 2.1 2.409v2.835c-.012.109-.012.22-.012.331 0 .884.234 1.146 1.078 1.146l.028.33c-.802-.026-1.41-.054-1.812-.054-.386 0-.966.028-1.703.054l.024-.33c.713-.112.794-.248.794-1.477l.015-.847v-1.23c0-1.739-.318-2.295-1.193-2.295-.54 0-.996.276-1.273.777-.11.207-.206.537-.206.676v2.92c.014 1.228.083 1.365.815 1.476l.043.33c-.775-.026-1.355-.054-1.742-.054-.402 0-.993.028-1.774.054l.027-.33Zm10.863-3.002c.14 1.952.787 3.014 1.83 3.014.995 0 1.59-1.033 1.59-2.75 0-2.043-.816-3.458-1.941-3.458-.994 0-1.505.848-1.505 2.575 0 .207 0 .414.026.62m-1.714.153v-.21c0-2.332 1.26-3.663 3.394-3.663 2.003 0 3.411 1.47 3.411 3.608 0 2.146-1.368 3.597-3.453 3.597-1.956 0-3.282-1.326-3.352-3.332Zm8.352 2.848c.928 0 1.066-.18 1.066-1.477v-3.183c0-1.259-.138-1.439-1.066-1.453l-.028-.317c1.23-.069 1.51-.11 2.552-.332l.061 1.223c.778-.85 1.388-1.182 2.203-1.182.94 0 1.49.387 1.883 1.29.845-.945 1.465-1.29 2.31-1.29 1.304 0 2.034.885 2.034 2.409v2.835c0 .109-.014.22-.014.331 0 .884.25 1.146 1.078 1.146l.03.33c-.802-.026-1.41-.054-1.8-.054-.374 0-.943.028-1.702.054l.028-.33c.731-.112.8-.248.814-1.477v-2.078c0-1.71-.3-2.294-1.16-2.294-.511 0-1.037.31-1.258.777-.07.164-.138.332-.18.525-.013.068-.028.124-.028.151v2.92c0 1.228.083 1.365.815 1.476l.03.33c-.733-.026-1.271-.054-1.637-.054-.358 0-.899.028-1.618.054l.03-.33c.732-.112.8-.248.813-1.477v-2.078c0-1.71-.303-2.294-1.162-2.294-.522 0-.993.288-1.256.777-.111.22-.2.537-.2.676v2.92c.014 1.228.075 1.365.809 1.476l.027.33c-.76-.026-1.319-.054-1.704-.054-.403 0-.996.028-1.798.054l.027-.33ZM60.3 19.64a.913.913 0 0 1 .914-.917.93.93 0 0 1 .927.917.92.92 0 0 1-.927.938c-.524 0-.914-.401-.914-.938Zm1.771 2.304v4.438l.013.847c0 1.296.127 1.476 1.065 1.476l.029.331c-.859-.026-1.48-.054-1.908-.054-.414 0-1.02.028-1.857.054l.026-.33c.913 0 1.043-.18 1.043-1.477l.013-.847v-1.45l-.013-.885c0-1.26-.13-1.44-1.043-1.454l-.026-.317c1.25-.082 1.538-.125 2.658-.332Zm2.771 6.845-.054-1.41.703-.026c.319 1.063.527 1.27 1.26 1.27.634 0 1.05-.331 1.05-.828 0-.471-.29-.814-1.162-1.4a41.867 41.867 0 0 1-.91-.635c-.36-.276-.623-.609-.762-.98a1.973 1.973 0 0 1-.125-.746c0-1.232.86-2.049 2.157-2.049.483 0 .76.041 1.857.304l.03 1.372-.703.029c-.157-.903-.437-1.22-1.086-1.22-.622 0-1.066.359-1.066.846 0 .482.223.773.941 1.228.649.43 1.146.815 1.483 1.12.388.371.61.84.61 1.363 0 1.221-1.026 2.163-2.342 2.163-.51 0-.994-.114-1.88-.4Zm5.687-6.402c1.09-.084 1.502-.552 1.815-1.99h.622v1.865h1.743l-.195.76h-1.548v3.374c0 1.676.222 2.075 1.161 2.075.22 0 .427-.027.76-.123v.4c-.469.262-1.118.414-1.78.414-.612 0-1.179-.345-1.416-.857-.208-.428-.276-.856-.276-1.772v-3.511h-.886v-.635Z" fill="#000921"/></g></svg>