<svg width="130" height="18" viewBox="0 0 130 18" fill="none" xmlns="http://www.w3.org/2000/svg" name="DHL" alt="DHL" class="hm-customer-logos__image"><g id="dhl_svg__DHL_Logo" clip-path="url(#dhl_svg__clip0_5405_15116)"><g id="dhl_svg__Group" fill="#fff"><path id="dhl_svg__Vector" d="M.001 16.65h15.66l-.9 1.26H.001v-1.26Z"/><path id="dhl_svg__Vector_2" d="M129.151 17.91h-19.17l.99-1.26h18.27v1.26h-.09Z"/><path id="dhl_svg__Vector_3" d="M.001 14.31h17.46l-.99 1.26H.001v-1.26Z"/><path id="dhl_svg__Vector_4" d="M.001 11.97h19.26l-.99 1.26H.001v-1.26Z"/><path id="dhl_svg__Vector_5" d="M129.151 15.57h-17.37l.99-1.26h16.47v1.26h-.09Z"/><path id="dhl_svg__Vector_6" d="M114.481 11.97h14.67v1.26h-15.66l.99-1.26Z"/><path id="dhl_svg__Vector_7" d="M16.92 17.91 25.2 6.84h10.26c1.17 0 1.17.45.54 1.17-.54.72-1.53 2.07-2.07 2.79-.27.45-.81 1.08.9 1.08H48.6C47.52 13.5 43.74 18 37.08 18c-5.4-.09-20.16-.09-20.16-.09Z"/><path id="dhl_svg__Vector_8" d="m64.352 11.97-4.5 6.03h-11.79l4.5-6.03h11.79Z"/><path id="dhl_svg__Vector_9" d="m81.542 11.97-4.5 6.03h-11.88l4.5-6.03h11.88Z"/><path id="dhl_svg__Vector_10" d="M85.411 11.97s-.9 1.17-1.26 1.71c-1.53 1.98-.18 4.32 4.68 4.32h19.08l4.5-6.03h-27Z"/><path id="dhl_svg__Vector_11" d="m22.772 0-4.14 5.49h22.5c1.17 0 1.17.45.54 1.17-.54.72-1.53 2.07-2.07 2.79-.27.36-.81 1.08.9 1.08h9.18s1.53-1.98 2.7-3.69c1.71-2.25.18-6.93-5.85-6.93-5.4.09-23.76.09-23.76.09Z"/><path id="dhl_svg__Vector_12" d="M82.531 10.53h-28.98L61.471 0h11.88l-4.5 6.03h5.31l4.5-6.03h11.88l-8.01 10.53Z"/><path id="dhl_svg__Vector_13" d="m106.921 0-7.92 10.53H86.4L94.32 0h12.6Z"/></g></g><defs><clipPath id="dhl_svg__clip0_5405_15116"><path fill="#fff" d="M0 0h129.15v18H0z"/></clipPath></defs></svg>