<svg width="221" height="26" viewBox="0 0 221 26" fill="none" xmlns="http://www.w3.org/2000/svg" name="Omnicom Group" alt="Omnicom Group" class="hm-customer-logos__image"><g id="omnicomGroup_svg__Group 1000010194" fill="#fff"><path id="omnicomGroup_svg__Vector" d="M0 10.637C0 4.073 5.08 0 10.646 0c6.224 0 10.673 4.833 10.673 10.422 0 5.59-4.422 10.423-10.7 10.423C4.257 20.845 0 15.824 0 10.668v-.031Zm5.16-.241c0 3.067 2.101 5.942 5.566 5.942 3.658 0 5.433-3.309 5.433-5.889 0-2.606-1.775-5.942-5.486-5.942-3.577 0-5.513 3.04-5.513 5.862v.027Z"/><path id="omnicomGroup_svg__Vector_2" d="M23.912 5.401h4.23v1.6s.273-.54.93-1.059c.653-.54 1.717-1.055 3.304-1.055 1.037 0 2.343.268 3.465 1.435.327.327.626.733.899 1.252.3-.465.657-.925 1.091-1.305.903-.814 2.133-1.382 3.715-1.382 1.065 0 2.755.241 3.984 1.52 1.422 1.49 1.637 2.495 1.637 5.835v8.223h-4.53v-8.008c0-.622 0-1.44-.299-2.115-.273-.707-.85-1.22-2.02-1.22-1.257 0-1.883.567-2.183 1.247-.33.68-.33 1.44-.33 1.873v8.223h-4.53v-8.196c0-.407 0-1.194-.273-1.873-.3-.707-.845-1.275-1.994-1.275-1.283 0-1.91.595-2.236 1.328-.33.733-.33 1.547-.33 2.008v8.008h-4.53V5.4Z"/><path id="omnicomGroup_svg__Vector_3" d="M50.363 5.401h4.23v1.6c.519-.732 1.475-2.114 4.176-2.114 5.102 0 5.62 4.122 5.62 6.161v9.417H59.86v-8.223c0-1.659-.353-3.12-2.374-3.12-2.24 0-2.593 1.6-2.593 3.147v8.196h-4.53V5.4Z"/><path id="omnicomGroup_svg__Vector_4" d="M67.613.38h4.53V3.8h-4.53V.38Zm0 5.021h4.53v15.064h-4.53V5.4Z"/><path id="omnicomGroup_svg__Vector_5" d="M90.734 14.737c-.818 3.42-3.85 6.215-7.945 6.215-4.583 0-8.106-3.582-8.106-8.062 0-4.422 3.465-8.003 7.999-8.003 4.01 0 7.26 2.629 8.025 6.322H86.12c-.492-1.033-1.39-2.115-3.277-2.115a3.262 3.262 0 0 0-2.62 1.056c-.626.706-.98 1.685-.98 2.767 0 2.2 1.445 3.828 3.6 3.828 1.886 0 2.785-1.087 3.277-2.008h4.614Z"/><path id="omnicomGroup_svg__Vector_6" d="M92.509 12.89c0-3.661 2.647-7.976 8.16-7.976s8.16 4.315 8.16 8.003c0 3.693-2.647 8.008-8.16 8.008s-8.16-4.315-8.16-8.008v-.027Zm4.53.054c0 2.173 1.662 3.774 3.63 3.774 1.967 0 3.63-1.601 3.63-3.8 0-2.196-1.663-3.797-3.63-3.797-1.968 0-3.63 1.6-3.63 3.796v.027Z"/><path id="omnicomGroup_svg__Vector_7" d="M111.396 5.401h4.229v1.6s.273-.54.93-1.059c.653-.54 1.717-1.055 3.305-1.055 1.037 0 2.347.268 3.465 1.435.326.327.626.733.898 1.252.3-.465.658-.925 1.096-1.305.899-.814 2.128-1.382 3.711-1.382 1.064 0 2.759.241 3.984 1.52 1.422 1.49 1.641 2.495 1.641 5.835v8.223h-4.534v-8.008c0-.622 0-1.44-.3-2.115-.272-.707-.845-1.22-2.021-1.22-1.256 0-1.882.567-2.181 1.247-.331.68-.331 1.44-.331 1.873v8.223h-4.53v-8.196c0-.407 0-1.194-.272-1.873-.3-.707-.846-1.275-1.995-1.275-1.283 0-1.909.595-2.235 1.328-.331.733-.331 1.547-.331 2.008v8.008h-4.529V5.4Z"/><path id="omnicomGroup_svg__Vector_8" d="M154.77 5.593a8.567 8.567 0 0 0-2.267-2.173c-1.31-.898-2.893-1.412-4.694-1.412-4.422 0-8.272 3.366-8.272 8.387 0 5.102 3.876 8.469 8.298 8.469 2.129 0 4.016-.733 5.406-1.82 1.417-1.113 2.401-2.633 2.728-4.207h-10.043V10.99h12.667c-.032 1.167-.304 2.634-.903 3.881-1.748 3.774-5.786 5.974-9.855 5.974-5.893 0-10.561-4.507-10.561-10.45 0-6.027 4.749-10.368 10.588-10.368 4.096 0 7.892 2.28 9.475 5.566h-2.567Z"/><path id="omnicomGroup_svg__Vector_9" d="M161.455 5.862h1.914v2.387c1.064-2.168 2.973-2.74 4.694-2.794v1.98h-.192c-2.839 0-4.422 1.767-4.422 5.075v7.955h-1.994V5.862Z"/><path id="omnicomGroup_svg__Vector_10" d="M168.854 13.136c0-4.073 3.059-7.681 7.78-7.681 4.749 0 7.807 3.608 7.807 7.708s-3.058 7.682-7.807 7.682c-4.721 0-7.78-3.582-7.78-7.682v-.027Zm1.995.054c0 3.313 2.535 5.808 5.785 5.808 3.273 0 5.786-2.495 5.786-5.835s-2.513-5.835-5.786-5.835c-3.25 0-5.785 2.495-5.785 5.835v.027Z"/><path id="omnicomGroup_svg__Vector_11" d="M200.98 20.465h-1.909v-2.607c-.818 1.9-2.812 3.04-5.433 3.014-4.583-.08-6.197-3.175-6.197-6.734V5.862h1.995v7.9c0 3.148 1.417 5.263 4.721 5.236 3.058-.026 4.807-1.846 4.807-4.882V5.862h2.016v14.603Z"/><path id="omnicomGroup_svg__Vector_12" d="M204.91 5.862h1.914v3.04c1.198-2.12 3.331-3.447 6.139-3.447 4.94 0 7.534 3.988 7.534 7.762 0 4.073-2.974 7.655-7.534 7.655-3.246 0-5.348-1.874-6.032-3.394V26h-2.021V5.862Zm13.57 7.274c0-2.74-1.94-5.835-5.897-5.835a5.842 5.842 0 0 0-4.149 1.708c-1.011 1.06-1.637 2.527-1.637 4.181 0 1.628.626 3.094 1.69 4.154 1.037 1.028 2.513 1.654 4.149 1.654 3.305 0 5.844-2.495 5.844-5.835v-.027Z"/></g></svg>