<svg width="151" height="24" viewBox="0 0 151 24" fill="none" xmlns="http://www.w3.org/2000/svg" name="Panasonic" alt="Panasonic" class="hm-customer-logos__image"><g id="panasonic_svg__Panasonic_logo_(Blue) 1" clip-path="url(#panasonic_svg__clip0_5405_15329)"><g id="panasonic_svg__g3344"><g id="panasonic_svg__g3532"><g id="panasonic_svg__Clip path group"><mask id="panasonic_svg__mask0_5405_15329" style="mask-type:luminance" maskUnits="userSpaceOnUse" x="0" y="0" width="152" height="24"><g id="panasonic_svg__clipPath3536"><path id="panasonic_svg__path3538" d="M.599.492h150.835v22.914H.599V.492Z" fill="#fff"/></g></mask><g mask="url(#panasonic_svg__mask0_5405_15329)"><g id="panasonic_svg__g3534"><g id="panasonic_svg__g3540"><path id="panasonic_svg__path3542" d="M148.212 20.808c-1.202 1.264-2.565 2.017-4.274 2.361a10.535 10.535 0 0 1-3.337.161c-1.554-.16-2.837-.66-4.088-1.595a8.517 8.517 0 0 1-2.395-2.693 7.413 7.413 0 0 1-.942-2.632 8.705 8.705 0 0 1 .191-3.865c.813-3.009 3.076-5.141 6.126-5.776 1.742-.362 3.291-.324 5.013.12a6.92 6.92 0 0 1 3.128 1.714 6.288 6.288 0 0 1 1.37 1.795c.437.835.613 1.647.563 2.587h-5.44a2.66 2.66 0 0 0-1.055-1.756 2.216 2.216 0 0 0-2.556-.124c-.555.346-.92.816-1.117 1.44-.468 1.486-.489 2.868-.072 4.369.178.63.477 1.125.954 1.576.544.519 1.222.732 1.967.623a1.825 1.825 0 0 0 1.146-.619c.326-.36.512-.747.597-1.225.06-.337.094-.622.112-.963h5.735c.115 1.729-.434 3.248-1.626 4.502Z" fill="#fff"/></g></g></g></g></g><path id="panasonic_svg__path3544" d="M126.283 4.802h5.95V.6h-5.95v4.203Z" fill="#fff"/><path id="panasonic_svg__path3546" d="M126.283 22.873h5.95V6.963h-5.95v15.91Z" fill="#fff"/><g id="panasonic_svg__g3548"><path id="panasonic_svg__path3550" d="M113.957 8.642a9.856 9.856 0 0 1 2.473-1.604c1.537-.71 3.074-.825 4.7-.35 1.743.51 3 1.737 3.55 3.47.264.832.378 1.571.378 2.444v10.27h-6.319v-9.236c0-.308-.037-.57-.129-.866a1.747 1.747 0 0 0-1.024-1.136 2.385 2.385 0 0 0-3.009.995 2.596 2.596 0 0 0-.374 1.377v8.865h-6.12V6.96h5.742l.132 1.682Z" fill="#fff"/></g><g id="panasonic_svg__g3552"><path id="panasonic_svg__path3554" d="M43.587 8.642a9.867 9.867 0 0 1 2.471-1.604c1.538-.71 3.076-.825 4.7-.35 1.745.51 3.002 1.737 3.552 3.47a7.68 7.68 0 0 1 .378 2.445V22.87H48.37v-9.234c0-.31-.039-.57-.129-.866a1.752 1.752 0 0 0-1.026-1.137 2.382 2.382 0 0 0-3.007.995 2.59 2.59 0 0 0-.375 1.377v8.865h-6.12V6.96h5.742l.133 1.682Z" fill="#fff"/></g><g id="panasonic_svg__g3556"><g id="panasonic_svg__Clip path group_2"><mask id="panasonic_svg__mask1_5405_15329" style="mask-type:luminance" maskUnits="userSpaceOnUse" x="0" y="0" width="152" height="24"><g id="panasonic_svg__clipPath3560"><path id="panasonic_svg__path3562" d="M.599.492h150.835v22.914H.599V.492Z" fill="#fff"/></g></mask><g mask="url(#panasonic_svg__mask1_5405_15329)"><g id="panasonic_svg__g3558"><g id="panasonic_svg__g3564"><path id="panasonic_svg__path3566" d="M81.09 17.023c.455.077.836.172 1.274.318.365.12.617.403.697.778.087.41-.028.798-.323 1.093a1.822 1.822 0 0 1-1.058.542 3.044 3.044 0 0 1-1.593-.15 2.15 2.15 0 0 1-.676-.386 1.714 1.714 0 0 1-.556-.836 2.583 2.583 0 0 1-.119-.848H72.91v.34c0 .547.085 1.012.278 1.525a4.871 4.871 0 0 0 1.297 1.93 6.187 6.187 0 0 0 2.65 1.496c2.154.614 4.094.735 6.308.396a8.715 8.715 0 0 0 2.83-.922c.41-.214.74-.434 1.095-.732 1.574-1.322 2.158-3.339 1.529-5.295a3.865 3.865 0 0 0-1.2-1.814 6.706 6.706 0 0 0-2.635-1.436 46.164 46.164 0 0 0-.639-.18 28.324 28.324 0 0 0-3.602-.767c-.343-.05-.631-.106-.97-.185a2.236 2.236 0 0 1-.431-.147.711.711 0 0 1-.329-.996c.193-.344.478-.568.853-.678a3.073 3.073 0 0 1 1.931.046c.627.214 1.02.788.993 1.45h5.614a5.542 5.542 0 0 0-.343-1.92 3.416 3.416 0 0 0-1.148-1.591 5.459 5.459 0 0 0-1.5-.858 8.154 8.154 0 0 0-1.628-.452 16.576 16.576 0 0 0-3.997-.226c-.806.046-1.485.146-2.273.33a6.813 6.813 0 0 0-2.771 1.331 4.417 4.417 0 0 0-1.51 2.111 3.845 3.845 0 0 0-.223 1.164 4.443 4.443 0 0 0 .328 1.942c.463 1.162 1.285 1.985 2.449 2.45.589.234 1.106.389 1.727.516 1.226.253 2.264.45 3.497.66Z" fill="#fff"/></g></g></g></g></g><g id="panasonic_svg__g3568"><path id="panasonic_svg__path3570" d="M11.438 16.011H7.355v-5.22h2.653c.504 0 .93-.012 1.435-.04a2.185 2.185 0 0 0 1.694-.912c.22-.3.345-.6.397-.97.044-.31.05-.575.02-.885A2.242 2.242 0 0 0 11.31 5.95H7.355v16.921H.595V.597h11.05c.439 0 .81.009 1.248.033 2.931.157 5.346 1.785 6.588 4.445.646 1.384.866 2.715.7 4.234-.35 3.2-2.588 5.688-5.732 6.377a13.336 13.336 0 0 1-3.01.325Z" fill="#fff"/></g><g id="panasonic_svg__g3572"><path id="panasonic_svg__path3574" d="M100.174 6.657c-.629-.1-1.166-.141-1.803-.141s-1.173.04-1.803.14c-1.827.287-3.307 1.021-4.64 2.3-1.427 1.373-2.209 2.996-2.388 4.966a9.1 9.1 0 0 0 .31 3.424c.5 1.795 1.438 3.182 2.918 4.315a7.547 7.547 0 0 0 3.142 1.459c.853.187 1.589.264 2.461.264.872 0 1.609-.077 2.462-.264a7.55 7.55 0 0 0 3.142-1.459l-3.419-3.725a2.394 2.394 0 0 1-3.168 1.202 2.309 2.309 0 0 1-1.203-1.202 5.55 5.55 0 0 1-.45-1.535 8.871 8.871 0 0 1 .07-3.198 4.1 4.1 0 0 1 .625-1.538 2.323 2.323 0 0 1 3.882 0c.322.49.515.961.626 1.538.217 1.11.238 2.08.069 3.198a5.55 5.55 0 0 1-.451 1.535l3.419 3.725c1.481-1.133 2.418-2.52 2.917-4.315a9.118 9.118 0 0 0 .31-3.424c-.179-1.97-.959-3.593-2.386-4.965-1.335-1.282-2.814-2.014-4.642-2.3Z" fill="#fff"/></g><g id="panasonic_svg__g3576"><g id="panasonic_svg__Clip path group_3"><mask id="panasonic_svg__mask2_5405_15329" style="mask-type:luminance" maskUnits="userSpaceOnUse" x="0" y="0" width="152" height="24"><g id="panasonic_svg__clipPath3580"><path id="panasonic_svg__path3582" d="M.599.492h150.835v22.914H.599V.492Z" fill="#fff"/></g></mask><g mask="url(#panasonic_svg__mask2_5405_15329)"><g id="panasonic_svg__g3578"><g id="panasonic_svg__g3584"><path id="panasonic_svg__path3586" d="M72.257 21.625a74.445 74.445 0 0 1-.165-3.736 354.854 354.854 0 0 1-.067-4.914c-.008-.932-.11-1.72-.343-2.621-.306-1.183-.999-2.082-2.066-2.68a6.724 6.724 0 0 0-1.956-.737c-2.295-.491-4.32-.532-6.632-.131a8.056 8.056 0 0 0-1.797.521c-1.41.583-2.38 1.645-2.832 3.1a3.806 3.806 0 0 0-.153 1.641.86.86 0 0 0 .087.293l5.354.131c-.014-.341.03-.63.146-.95.175-.489.52-.835 1.009-1.013a3.129 3.129 0 0 1 2.138-.037c.478.157.817.502.966.983.094.3.047.596-.134.853-.158.227-.353.38-.612.478-.16.061-.296.106-.46.15-.744.2-1.379.338-2.139.464-.602.099-1.108.192-1.705.314a19 19 0 0 0-2.273.593 4.748 4.748 0 0 0-1.84 1.074 3.88 3.88 0 0 0-1.274 2.416c-.091.648-.07 1.213.073 1.851.375 1.66 1.527 2.887 3.162 3.363 1.812.525 3.512.439 5.261-.267a5.015 5.015 0 0 0 2.086-1.524l-.378-2.735c-.27.418-.605.703-1.057.903a3.983 3.983 0 0 1-1.271.334c-.385.038-.72.01-1.093-.095a1.556 1.556 0 0 1-.755-.454 1.353 1.353 0 0 1-.345-.668 1.062 1.062 0 0 1 .36-1.053c.21-.179.416-.298.672-.393.622-.229 1.153-.4 1.79-.58.77-.218 1.407-.453 2.133-.787.072.582.068 1.08-.013 1.66a2.655 2.655 0 0 1-.421 1.133l.378 2.735c.117.389.225.714.357 1.094.076.214.174.379.323.545h5.897a2.548 2.548 0 0 1-.41-1.254Z" fill="#fff"/></g><g id="panasonic_svg__g3588"><path id="panasonic_svg__path3590" d="M36.537 21.625a74.208 74.208 0 0 1-.165-3.736 341.301 341.301 0 0 1-.068-4.914 10.185 10.185 0 0 0-.343-2.621c-.306-1.183-.997-2.082-2.065-2.68a6.726 6.726 0 0 0-1.956-.737c-2.295-.491-4.32-.532-6.633-.131a8.065 8.065 0 0 0-1.797.521c-1.409.583-2.379 1.645-2.831 3.1a3.806 3.806 0 0 0-.153 1.641.84.84 0 0 0 .087.294l5.354.13a2.4 2.4 0 0 1 .146-.95c.175-.489.52-.835 1.008-1.013a3.127 3.127 0 0 1 2.137-.037c.48.157.82.502.97.983.091.3.045.596-.136.853-.16.227-.354.38-.612.478-.16.061-.296.106-.46.15-.744.2-1.38.338-2.14.464-.6.099-1.108.193-1.705.314-.81.16-1.486.339-2.273.593a4.764 4.764 0 0 0-1.84 1.074 3.884 3.884 0 0 0-1.274 2.416 4.887 4.887 0 0 0 .075 1.851c.373 1.66 1.527 2.887 3.16 3.363 1.814.525 3.512.439 5.262-.267.85-.342 1.5-.817 2.086-1.523l-.377-2.736c-.27.418-.606.703-1.06.903a3.977 3.977 0 0 1-1.269.334 2.83 2.83 0 0 1-1.093-.095 1.548 1.548 0 0 1-.754-.453 1.347 1.347 0 0 1-.346-.669 1.064 1.064 0 0 1 .36-1.053c.21-.178.414-.298.672-.393.622-.229 1.154-.4 1.79-.58a13.84 13.84 0 0 0 2.133-.787c.071.582.068 1.08-.013 1.66a2.68 2.68 0 0 1-.42 1.133l.377 2.736c.116.388.224.713.358 1.093.074.214.172.379.321.545h5.898a2.557 2.557 0 0 1-.411-1.254Z" fill="#fff"/></g></g></g></g></g></g></g><defs><clipPath id="panasonic_svg__clip0_5405_15329"><path fill="#fff" d="M0 0h150.45v24H0z"/></clipPath></defs></svg>