<svg xmlns="http://www.w3.org/2000/svg" width="150" height="30" viewBox="0 0 150 30" fill="none" name="Samsonite" alt="Samsonite" class="hm-customer-logos__image"><g fill="#fff"><path d="M29.98 19.835h-6.692a2.014 2.014 0 0 1-1.422-3.434c.377-.378.888-.59 1.422-.591h6.692v4.025ZM27.968 7.284h-8.155v2.94h8.155c1.087 0 2.012.878 2.012 1.987v.688h-6.692a4.927 4.927 0 0 0-4.922 4.923 4.927 4.927 0 0 0 4.922 4.925l9.603-.003V12.21a4.923 4.923 0 0 0-4.923-4.927Zm24.847-.001c2.714 0 4.915 2.214 4.915 4.928v10.538h-2.91V12.232a2.015 2.015 0 0 0-2.012-2.013l-5.074.003v12.527h-2.91V10.22l-4.769-.002a2.013 2.013 0 0 0-2.011 2.013v10.517h-2.91V12.211a4.938 4.938 0 0 1 4.927-4.929h12.754ZM63.96 7.28a3.954 3.954 0 0 0-3.949 3.95c0 1.624.977 3.062 2.491 3.666 7.752 2.432 7.754 2.428 7.759 2.43a1.29 1.29 0 0 1 .486 2.13c-.242.242-.57.379-.911.38h-9.865v2.912h9.865a4.207 4.207 0 0 0 4.203-4.204 4.184 4.184 0 0 0-2.646-3.9l-7.765-2.463a1.004 1.004 0 0 1-.676-.95c0-.557.453-1.007 1.008-1.007h8.526V7.28H63.96ZM99.9 12.212a4.93 4.93 0 0 1 4.923-4.923h5.059a4.93 4.93 0 0 1 4.924 4.923l-.001 10.539h-2.911l.001-10.514a2.013 2.013 0 0 0-2.013-2.013h-5.059a2.016 2.016 0 0 0-2.013 2.013v10.512H99.9m25.212-18.412v2.947l4.61.001v2.933h-4.61v7.599a2.01 2.01 0 0 0 2.011 2.011h4.065v2.913h-4.065a4.93 4.93 0 0 1-4.923-4.924l.002-13.48m-5.15 2.943h2.908v15.47h-2.908m26.956-9.459H135.8V12.25a2.01 2.01 0 0 1 2.011-2.012h4.183a2.016 2.016 0 0 1 2.014 2.012v1.042Zm2.911-1.042a4.93 4.93 0 0 0-4.925-4.924h-4.183a4.93 4.93 0 0 0-4.924 4.924l.006 5.578a4.928 4.928 0 0 0 4.923 4.922h7.641v-2.921h-7.641a2.012 2.012 0 0 1-2.013-2.01l-.002-1.616 11.116-.003.002-3.95ZM11.777 19.834a1.94 1.94 0 0 0 .629-3.774l-9.57-3.002A4.497 4.497 0 0 1 .003 8.864a4.53 4.53 0 0 1 4.525-4.526h10.625V7.28H4.528c-.848 0-1.589.71-1.589 1.585a1.584 1.584 0 0 0 1.068 1.5l9.576 3.044a4.812 4.812 0 0 1 3.033 4.487c0 2.668-2.17 4.85-4.839 4.85H0v-2.912h11.777Zm75.978.773a7.876 7.876 0 0 1-6.85 2.404c.345.64.792 1.22 1.322 1.718a6.797 6.797 0 0 0 9.595-.304c2.563-2.73 2.427-7.034-.303-9.596a6.787 6.787 0 0 0-1.797-1.211 7.874 7.874 0 0 1-1.967 6.989Z"/><path d="M92.346 13.984a7.878 7.878 0 0 1 2.403 6.85 6.727 6.727 0 0 0 1.719-1.323c2.56-2.73 2.425-7.034-.305-9.595-2.729-2.562-7.034-2.425-9.596.303a6.802 6.802 0 0 0-1.21 1.797 7.885 7.885 0 0 1 6.99 1.968Z"/><path d="M85.721 9.393a7.874 7.874 0 0 1 6.851-2.403 6.742 6.742 0 0 0-1.322-1.718 6.799 6.799 0 0 0-9.597.303c-2.56 2.73-2.425 7.035.305 9.597.53.498 1.137.906 1.798 1.21a7.877 7.877 0 0 1 1.965-6.989Z"/><path d="M81.133 16.016a7.87 7.87 0 0 1-2.405-6.849 6.71 6.71 0 0 0-1.718 1.322c-2.56 2.73-2.425 7.034.305 9.596a6.798 6.798 0 0 0 9.596-.304 6.782 6.782 0 0 0 1.21-1.798 7.872 7.872 0 0 1-6.988-1.967Zm66.511-9.885v-.688h.46c.235 0 .484.05.484.327 0 .34-.254.361-.54.361h-.404Zm0 .287h.388l.587.963h.377l-.632-.979c.326-.04.576-.214.576-.613 0-.438-.26-.632-.786-.632h-.847V7.38h.337v-.963Zm.408 1.78c1.051 0 1.948-.817 1.948-1.934 0-1.107-.897-1.923-1.948-1.923-1.061 0-1.958.816-1.958 1.923 0 1.117.897 1.934 1.958 1.934Zm-1.571-1.934c0-.913.69-1.601 1.571-1.601.873 0 1.562.688 1.562 1.601 0 .928-.689 1.613-1.562 1.613-.881 0-1.571-.685-1.571-1.613Z"/></g></svg>